<svg xmlns="http://www.w3.org/2000/svg" width="7.879" height="6.754" viewBox="0 0 7.879 6.754">
    <defs>
        <style>
            .cls-1{fill:#fff}
        </style>
    </defs>
    <path id="like_outline" d="M7.673 4.75A1.38 1.38 0 0 1 9.091 6.1c0 .75-1.536 2.4-3.152 3.677C4.324 8.465 2.788 6.814 2.788 6.1a1.38 1.38 0 0 1 1.418-1.35c.945 0 1.733 1.126 1.733 1.126S6.688 4.75 7.673 4.75m0-.75a2.16 2.16 0 0 0-1.733.863A2.16 2.16 0 0 0 4.206 4 2.152 2.152 0 0 0 2 6.1c0 1.651 3.94 4.652 3.94 4.652s3.94-3 3.94-4.652A2.152 2.152 0 0 0 7.673 4z" class="cls-1" transform="translate(-2 -4)"/>
</svg>
