<svg xmlns="http://www.w3.org/2000/svg" width="13.895" height="12.632" viewBox="0 0 13.895 12.632">
    <defs>
        <style>
            .cls-1{fill:#9d9d9d}
        </style>
    </defs>
    <g id="Group_2352" data-name="Group 2352" transform="translate(-571 -1280)">
        <path id="Path_748" d="M13.632 5.421H9.646l.6-2.886.019-.2a.951.951 0 0 0-.278-.669L9.318 1 5.162 5.162a1.235 1.235 0 0 0-.373.891v6.316a1.267 1.267 0 0 0 1.263 1.263h5.684a1.255 1.255 0 0 0 1.162-.771l1.907-4.453a1.248 1.248 0 0 0 .088-.461V6.684a1.267 1.267 0 0 0-1.261-1.263zm0 2.526l-1.895 4.421H6.053V6.053l2.741-2.741-.7 3.373h5.539zM1 6.053h2.526v7.579H1z" class="cls-1" data-name="Path 748" transform="translate(570 1279)"/>
    </g>
</svg>
