<svg xmlns="http://www.w3.org/2000/svg" width="20" height="20" viewBox="0 0 20 20">
  <defs>
    <style>
      .cls-1 {
        opacity: 0.4;
      }

      .cls-2 {
        fill: none;
      }

      .cls-3 {
        opacity: 0.6;
      }
    </style>
  </defs>
  <g id="Group_7" data-name="Group 7" class="cls-1" transform="translate(244 -489)">
    <rect id="Rectangle_19" data-name="Rectangle 19" class="cls-2" width="20" height="20" transform="translate(-244 489)"/>
    <path id="bx-bath" class="cls-3" d="M17.2,8.526H6V6.158a1.6,1.6,0,0,1,3.2,0h1.6a3.2,3.2,0,0,0-6.4,0V8.526H2.8a.794.794,0,0,0-.8.789v1.579a4.747,4.747,0,0,0,3.2,4.461V18H6.8V15.632h6.4V18h1.6V15.355A4.747,4.747,0,0,0,18,10.895V9.316A.794.794,0,0,0,17.2,8.526Zm-.8,2.368a3.182,3.182,0,0,1-3.2,3.158H6.8a3.182,3.182,0,0,1-3.2-3.158v-.789H16.4Z" transform="translate(-244 489)"/>
  </g>
</svg>
