<svg xmlns="http://www.w3.org/2000/svg" width="13.549" height="12.92" viewBox="0 0 13.549 12.92">
    <defs>
        <style>
            .cls-1{fill:#e8bb20}
        </style>
    </defs>
    <g id="star">
        <path id="Path_98" d="M7.094.665l1.724 4.079 4.412.379a.348.348 0 0 1 .2.609l-3.347 2.9 1 4.313a.347.347 0 0 1-.518.376l-3.79-2.287-3.792 2.287a.348.348 0 0 1-.518-.376l1-4.313L.12 5.731a.348.348 0 0 1 .2-.609l4.412-.379L6.454.665a.347.347 0 0 1 .641 0z" class="cls-1" data-name="Path 98" transform="translate(0 -.452)"/>
    </g>
</svg>
