<svg xmlns="http://www.w3.org/2000/svg" width="24" height="24" viewBox="0 0 24 24">
    <defs>
        <style>
            .cls-1{opacity:.5}.cls-2{fill:none}.cls-3{stroke:#000;opacity:.6}
        </style>
    </defs>
    <g id="Group_2325" class="cls-1" data-name="Group 2325" transform="translate(298 -268)">
        <path id="Rectangle_36" d="M0 0h24v24H0z" class="cls-2" data-name="Rectangle 36" transform="translate(-298 268)"/>
        <path id="stairs" d="M16.61 3.827v1.838a.1.1 0 0 1-.1.1h-.241V.678h3.39a.339.339 0 1 0 0-.678h-3.727a.342.342 0 0 0-.042.008.322.322 0 0 0-.072.014.328.328 0 0 0-.061.033.308.308 0 0 0-.04.022L1.3 11.929a.339.339 0 1 0 .431.523l.64-.526v4.684H.776a.777.777 0 0 0-.776.776V20h20V3.051h-2.614a.777.777 0 0 0-.776.776zM14 5.763a.777.777 0 0 0-.776.776v1.936h-.339V3.286l2.712-2.23v4.707zm-3.054 2.712a.777.777 0 0 0-.776.776v1.838a.1.1 0 0 1-.1.1h-.239V5.795L12.2 3.844v4.631zm-3.39 2.712a.777.777 0 0 0-.776.776V13.8a.1.1 0 0 1-.1.1h-.239V8.582l2.712-2.23v4.834zm-4.505.183l2.712-2.23v4.76h-1.6a.777.777 0 0 0-.776.776v1.838a.1.1 0 0 1-.1.1h-.236zm16.271 7.953H.678v-1.937a.1.1 0 0 1 .1-.1h2.514a.777.777 0 0 0 .776-.776v-1.836a.1.1 0 0 1 .1-.1h2.514a.777.777 0 0 0 .776-.776v-1.836a.1.1 0 0 1 .1-.1h2.516a.777.777 0 0 0 .776-.776V9.251a.1.1 0 0 1 .1-.1h2.95V6.539a.1.1 0 0 1 .1-.1h2.516a.777.777 0 0 0 .776-.776V3.827a.1.1 0 0 1 .1-.1h1.936z" class="cls-3" transform="translate(-295.5 270.5)"/>
    </g>
</svg>
