<svg xmlns="http://www.w3.org/2000/svg" width="20" height="20" viewBox="0 0 20 20">
    <defs>
        <style>
            .cls-1{opacity:.6}.cls-2{fill:#5f6369}
        </style>
    </defs>
    <g id="earth" class="cls-1">
        <path id="Path_104" d="M17.071 2.929A10 10 0 0 1 2.929 17.071 10 10 0 1 1 17.071 2.929zm-.884 13.258a8.69 8.69 0 0 0 2.388-4.435c-.263.387-.515.531-.671-.336-.161-1.414-1.459-.511-2.276-1.013-.859.579-2.791-1.126-2.463.8.507.868 2.735-1.161 1.624.675-.708 1.282-2.591 4.12-2.346 5.591.031 2.143-2.19.447-2.955-.264-.515-1.424-.175-3.914-1.521-4.611-1.461-.063-2.715-.2-3.281-1.829-.341-1.172.363-2.911 1.614-3.18 1.833-1.152 2.488 1.349 4.207 1.4.534-.558 1.989-.736 2.109-1.362-1.128-.2 1.431-.948-.108-1.375-.849.1-1.4.88-.945 1.542-1.645.384-1.7-2.381-3.28-1.509-.04 1.379-2.582.447-.88.167.585-.256-.954-1-.123-.862.409-.022 1.784-.5 1.412-.828.766-.475 1.409 1.138 2.159-.037.541-.9-.227-1.07-.905-.612-.382-.428.675-1.353 1.608-1.753a1.854 1.854 0 0 1 .835-.185c.47.543 1.339.637 1.384-.065a8.772 8.772 0 0 0-9 .875c.4.185.632.415.244.709-.3.9-1.527 2.107-2.6 1.936a8.653 8.653 0 0 0-1.079 3.131c.9.3 1.108.888.915 1.085a2.962 2.962 0 0 0-.886 1.588 8.751 8.751 0 0 0 14.821 4.757z" class="cls-2" data-name="Path 104"/>
    </g>
</svg>
