<svg xmlns="http://www.w3.org/2000/svg" width="28.176" height="28.177" viewBox="0 0 28.176 28.177">
    <defs>
        <style>
            .cls-1{fill:#475993}
        </style>
    </defs>
    <path id="facebook" d="M24.381 0H3.8A3.8 3.8 0 0 0 0 3.8v20.579a3.8 3.8 0 0 0 3.8 3.8h10.15l.017-10.069h-2.616a.617.617 0 0 1-.617-.615l-.013-3.246a.617.617 0 0 1 .617-.62h2.612v-3.137c0-3.639 2.223-5.621 5.469-5.621h2.664a.617.617 0 0 1 .617.617v2.737a.617.617 0 0 1-.617.617h-1.634c-1.766 0-2.107.839-2.107 2.07v2.715h3.88a.617.617 0 0 1 .613.69l-.385 3.246a.617.617 0 0 1-.613.545h-3.478l-.017 10.069h6.04a3.8 3.8 0 0 0 3.8-3.8V3.8A3.8 3.8 0 0 0 24.381 0z" class="cls-1" transform="translate(-.002)"/>
</svg>
