<svg xmlns="http://www.w3.org/2000/svg" width="13.141" height="10.896" viewBox="0 0 13.141 10.896">
    <defs>
        <style>
            .cls-1{fill:#fff}
        </style>
    </defs>
    <g id="handshake">
        <g id="Layer_1_120_">
            <g id="Group_1742" data-name="Group 1742">
                <g id="Group_1740" data-name="Group 1740" transform="translate(0 .808)">
                    <path id="Path_158" d="M8.87 7.858a.271.271 0 0 0-.111-.067L6.25 7a1.783 1.783 0 0 0-1.832.411 1.041 1.041 0 0 0-.221.305l-1.118 2.632a.671.671 0 0 0 .058.551 1.076 1.076 0 0 0 .712.565 1.041 1.041 0 0 0 .987-.311 1.022 1.022 0 0 0 .173-.223l.376-.7a1.462 1.462 0 0 1 .246-.33c.322-.323.476-.175.541-.112.562.543 3.51 3.5 3.51 3.5a.35.35 0 0 1-.483.483l-.828-.828a.273.273 0 0 0-.386.386l.828.828a.35.35 0 0 1-.482.482l-.831-.822a.273.273 0 0 0-.386.386l.828.828a.35.35 0 0 1-.483.482l-.828-.828a.273.273 0 1 0-.386.386l.828.828a.35.35 0 0 1-.483.483l-1.005-1.009a.6.6 0 0 0-.109-.745.584.584 0 0 0-.821-.048.583.583 0 0 0-.048-.821.584.584 0 0 0-.82-.048.582.582 0 0 0-.049-.82.583.583 0 0 0-.82-.049.583.583 0 0 0-.048-.821.59.59 0 0 0-.776-.084l-1.631-1.63a.273.273 0 0 0-.386.386L1.7 12.321l-.483.483a.583.583 0 0 0 .049.82.583.583 0 0 0 .82.048.583.583 0 0 0 .048.82.584.584 0 0 0 .82.048.583.583 0 0 0 .048.82.583.583 0 0 0 .82.049.583.583 0 0 0 .048.82.583.583 0 0 0 .82.048l.51-.51 1 1a.856.856 0 0 0 1.206-.048.923.923 0 0 0 .271-.6.937.937 0 0 0 .869-.869.934.934 0 0 0 .868-.869.919.919 0 0 0 .6-.272.856.856 0 0 0 .048-1.206l-.422-.422 1.733-1.733a.273.273 0 0 0 0-.386z" class="cls-1" data-name="Path 158" transform="translate(.003 -6.907)"/>
                </g>
                <g id="Group_1741" data-name="Group 1741" transform="translate(9.068)">
                    <path id="Path_159" d="M36.347 6.385l-2.209-2.209a.546.546 0 0 0-.772 0l-.772.772a.546.546 0 0 0 0 .772L34.8 7.929a.546.546 0 0 0 .772 0l.772-.772a.547.547 0 0 0 .003-.772zm-1.16 1.125a.448.448 0 1 1 .448-.448.448.448 0 0 1-.448.448z" class="cls-1" data-name="Path 159" transform="translate(-32.433 -4.016)"/>
                </g>
            </g>
        </g>
    </g>
</svg>
