<svg xmlns="http://www.w3.org/2000/svg" width="16" height="15" viewBox="0 0 16 15">
    <defs>
        <style>
            .cls-1{opacity:.6}
        </style>
    </defs>
    <path id="bx-bath" d="M17.2 8.526H6V6.158a1.6 1.6 0 0 1 3.2 0h1.6a3.2 3.2 0 0 0-6.4 0v2.368H2.8a.794.794 0 0 0-.8.789v1.579a4.747 4.747 0 0 0 3.2 4.461V18h1.6v-2.368h6.4V18h1.6v-2.645a4.747 4.747 0 0 0 3.2-4.46V9.316a.794.794 0 0 0-.8-.79zm-.8 2.368a3.182 3.182 0 0 1-3.2 3.158H6.8a3.182 3.182 0 0 1-3.2-3.158v-.789h12.8z" class="cls-1" transform="translate(-2 -3)"/>
</svg>
